<?xml version="1.0" encoding="utf-8"?>
<!-- Generated by IcoMoon.io -->
<!DOCTYPE svg PUBLIC "-//W3C//DTD SVG 1.1//EN" "http://www.w3.org/Graphics/SVG/1.1/DTD/svg11.dtd">
<svg version="1.1" xmlns="http://www.w3.org/2000/svg" xmlns:xlink="http://www.w3.org/1999/xlink" width="32" height="32" viewBox="0 0 32 32">
<path d="M15.173 0c0.56 0 1.093 0 1.653 0 0.267 0 0.507 0.053 0.773 0.080 3.12 0.347 5.947 1.44 8.373 3.44 3.067 2.48 5.013 5.68 5.733 9.6 0.107 0.64 0.187 1.28 0.293 1.92 0 0.64 0 1.307 0 1.947-0.027 0.107-0.053 0.24-0.080 0.347-0.080 0.613-0.133 1.253-0.267 1.84-1.387 6.613-6.533 11.52-13.173 12.613-0.533 0.080-1.067 0.213-1.6 0.213-0.613 0-1.2 0-1.813 0-0.107 0-0.213-0.053-0.32-0.080-0.64-0.080-1.28-0.133-1.893-0.267-3.12-0.64-5.84-2.053-8.133-4.32-2.453-2.453-3.973-5.44-4.507-8.933-0.080-0.587-0.213-1.2-0.213-1.787 0-0.4 0-0.827 0-1.227 0-0.507 0.107-1.013 0.16-1.547 0.507-3.547 2-6.613 4.533-9.147 2.453-2.453 5.44-3.947 8.88-4.48 0.533-0.080 1.067-0.213 1.6-0.213zM15.867 10.72c-0.107-0.133-0.213-0.293-0.373-0.4-0.32-0.213-0.693-0.4-1.040-0.587-0.453-0.267-0.64-0.213-0.907 0.24-0.693 1.227-1.413 2.427-2.107 3.653-1.173 2.053-2.373 4.133-3.547 6.187-0.267 0.453-0.213 0.64 0.24 0.907 0.32 0.187 0.64 0.373 0.96 0.56 0.4 0.213 0.613 0.16 0.853-0.24 1.893-3.307 3.787-6.613 5.68-9.92 0.107-0.107 0.16-0.213 0.24-0.4zM22.72 17.253c-0.053-0.16-0.107-0.293-0.16-0.427-1.84-3.653-3.867-7.2-6-10.693-0.267-0.427-0.587-0.853-0.88-1.28-0.080-0.080-0.213-0.133-0.32-0.187-0.053 0.133-0.133 0.267-0.107 0.373 0.133 0.587 0.267 1.2 0.48 1.76 1.147 2.72 2.347 5.413 3.547 8.133 0.427 0.96 0.96 1.893 1.44 2.827 0.16 0.347 0.48 0.533 0.827 0.453 0.373-0.107 0.693-0.347 1.013-0.56 0.080-0.053 0.107-0.24 0.16-0.4zM10.667 13.227c-0.080-0.027-0.080-0.053-0.107-0.053-1.573 0-3.12 0-4.693 0-0.347 0-0.48 0.187-0.48 0.533 0 0.88 0 1.76 0 2.64 0 0.4 0.133 0.533 0.56 0.533 0.8 0 1.6 0 2.427 0 0.107 0 0.24-0.053 0.293-0.133 0.667-1.173 1.333-2.32 2-3.52zM19.147 16.8c-0.533-1.067-1.067-2.32-1.6-3.467-0.053-0.080-0.187-0.16-0.293-0.16-0.48-0.027-0.933 0-1.413 0-0.213 0-0.32 0.080-0.427 0.267-0.56 0.987-1.12 1.947-1.707 2.933-0.080 0.133-0.16 0.427-0.267 0.427 1.92 0 3.787 0 5.707 0zM21.68 13.067c0 0.267 0 0.133 0 0.16 0.613 1.173 1.2 2.347 1.813 3.52 0.027 0.080 0.16 0.133 0.267 0.133 0.667 0 1.36 0.027 2.027 0 0.373 0 0.507-0.133 0.507-0.533 0-0.88 0-1.76 0-2.64 0-0.4-0.133-0.56-0.507-0.587-0.427 0-0.853-0.053-1.307-0.053-0.907 0-1.84 0-2.8 0zM25.68 24.080c0-0.347 0.053-0.693 0-1.040-0.053-0.427-0.16-0.853-0.347-1.227-0.24-0.507-0.827-0.56-1.387-0.24-0.427 0.267-0.587 0.747-0.293 1.173 0.187 0.293 0.48 0.533 0.773 0.72 0.4 0.24 0.827 0.4 1.253 0.613zM24.133 20.24c-0.027-0.107-0.027-0.16-0.053-0.187-0.24-0.453-0.453-0.907-0.693-1.333-0.133-0.24-0.373-0.293-0.64-0.16-0.24 0.107-0.48 0.24-0.72 0.347-0.293 0.16-0.347 0.4-0.213 0.667 0.24 0.427 0.507 0.853 0.8 1.253 0.16 0.24 0.4 0.267 0.64 0.16s0.453-0.24 0.64-0.4c0.133-0.080 0.187-0.24 0.24-0.347zM6.907 23.253c0 0.053 0.027 0.187 0.080 0.347 0.16-0.053 0.32-0.080 0.427-0.16 0.453-0.293 0.907-0.613 1.36-0.933 0.32-0.213 0.32-0.4-0.027-0.587-0.347-0.213-0.72-0.427-1.093-0.613-0.373-0.213-0.533-0.133-0.587 0.293-0.027 0.48-0.080 1.013-0.16 1.653z" fill="#444444"></path>
</svg>
