<?xml version="1.0" encoding="utf-8"?>
<!-- Generated by IcoMoon.io -->
<!DOCTYPE svg PUBLIC "-//W3C//DTD SVG 1.1//EN" "http://www.w3.org/Graphics/SVG/1.1/DTD/svg11.dtd">
<svg version="1.1" xmlns="http://www.w3.org/2000/svg" xmlns:xlink="http://www.w3.org/1999/xlink" width="32" height="32" viewBox="0 0 32 32">
<path d="M18.133 22.507h3.467v1.867h-3.467v-1.867z" fill="#444444"></path>
<path d="M18.133 7.573h3.467v1.867h-3.467v-1.867z" fill="#444444"></path>
<path d="M25.6 7.573v1.867h4.533v13.067h-4.533v1.867h6.4v-16.8z" fill="#444444"></path>
<path d="M22.667 30.24h-13.333v-4.533h-1.6v6.133h16.8v-13.867h-1.867z" fill="#444444"></path>
<path d="M16.8 17.973h-10.4v-10.4h-6.4v16.8h16.8z" fill="#444444"></path>
<path d="M10.667 7.573h6.133v6.4h-6.133v-6.4z" fill="#444444"></path>
<path d="M7.733 16.907c5.6 0 11.2 0 16.8 0 0-5.6 0-11.2 0-16.8h-16.8c0 5.6 0 11.2 0 16.8zM9.333 1.973h13.333v13.067h-13.333v-13.067z" fill="#444444"></path>
</svg>
